<?xml version="1.0" encoding="UTF-8" standalone="no"?>
<!-- Created with Inkscape (http://www.inkscape.org/) -->

<svg
   xmlns:dc="http://purl.org/dc/elements/1.1/"
   xmlns:cc="http://creativecommons.org/ns#"
   xmlns:rdf="http://www.w3.org/1999/02/22-rdf-syntax-ns#"
   xmlns:svg="http://www.w3.org/2000/svg"
   xmlns="http://www.w3.org/2000/svg"
   xmlns:sodipodi="http://sodipodi.sourceforge.net/DTD/sodipodi-0.dtd"
   xmlns:inkscape="http://www.inkscape.org/namespaces/inkscape"
   width="64"
   height="64"
   viewBox="0 0 16.933333 16.933334"
   version="1.1"
   id="svg8"
   inkscape:version="0.92.4 (5da689c313, 2019-01-14)"
   sodipodi:docname="hranice.svg">
  <defs
     id="defs2" />
  <sodipodi:namedview
     id="base"
     pagecolor="#ffffff"
     bordercolor="#666666"
     borderopacity="1.0"
     inkscape:pageopacity="0.0"
     inkscape:pageshadow="2"
     inkscape:zoom="2.8"
     inkscape:cx="-107.94227"
     inkscape:cy="42.043793"
     inkscape:document-units="mm"
     inkscape:current-layer="layer2"
     showgrid="false"
     units="px"
     inkscape:window-width="1920"
     inkscape:window-height="1017"
     inkscape:window-x="-8"
     inkscape:window-y="-8"
     inkscape:window-maximized="1" />
  <metadata
     id="metadata5">
    <rdf:RDF>
      <cc:Work
         rdf:about="">
        <dc:format>image/svg+xml</dc:format>
        <dc:type
           rdf:resource="http://purl.org/dc/dcmitype/StillImage" />
        <dc:title />
      </cc:Work>
    </rdf:RDF>
  </metadata>
  <g
     inkscape:groupmode="layer"
     id="layer2"
     inkscape:label="Vrstva 2">
    <path
       style="opacity:1;fill:#ba2c0a;fill-opacity:1;stroke:none;stroke-width:3.77952766;stroke-miterlimit:4;stroke-dasharray:none;stroke-opacity:1"
       d="M -14.201172 -0.26171875 L -14.660156 0.19140625 L -15.119141 0.64453125 L -15.119141 5.7207031 L -15.119141 10.800781 L -14.679688 11.246094 L -14.242188 11.691406 L -9.9042969 11.689453 C -4.9262838 11.687575 -4.0743456 11.63252 -3.6035156 11.273438 L -3.2871094 11.03125 L -3.2910156 6.1191406 C -3.2940831 3.4183988 -3.3285571 1.0065626 -3.3691406 0.75976562 C -3.4568532 0.22646968 -3.6005717 0.062468356 -4.0859375 -0.060546875 C -4.2858658 -0.1111326 -6.6354965 -0.17637327 -9.3242188 -0.20703125 L -14.201172 -0.26171875 z M -1.0878906 -0.23632812 L -1.4882812 0.15625 L -1.8886719 0.54882812 L -1.8886719 5.6757812 L -1.8886719 10.800781 L -1.4492188 11.246094 L -1.0097656 11.691406 L 9.1972656 11.6875 C 14.810922 11.684818 20.085777 11.648808 20.917969 11.607422 C 22.361796 11.535758 22.446029 11.522572 22.802734 11.275391 L 23.177734 11.015625 L 23.177734 5.7890625 L 23.177734 0.56445312 L 22.785156 0.1640625 L 22.392578 -0.23632812 L 10.654297 -0.23632812 L -1.0878906 -0.23632812 z M 51.929688 -0.23632812 L 51.484375 0.20507812 L 51.039062 0.64453125 L 51.039062 5.7207031 L 51.039062 10.800781 L 51.476562 11.246094 L 51.916016 11.691406 L 63.611328 11.691406 L 75.304688 11.691406 L 75.75 11.251953 L 76.197266 10.8125 L 76.197266 5.7363281 L 76.197266 0.65820312 L 75.757812 0.2109375 L 75.318359 -0.23632812 L 63.625 -0.23632812 L 51.929688 -0.23632812 z M 25.632812 -0.1875 L 25.173828 0.095703125 L 24.716797 0.37890625 L 24.716797 5.453125 C 24.716797 8.2439618 24.748255 10.686144 24.789062 10.878906 C 24.907876 11.43945 25.163646 11.542768 26.576172 11.613281 C 28.179839 11.693377 48.262501 11.61587 48.800781 11.527344 C 49.168983 11.466834 49.243931 11.411125 49.439453 11.056641 C 49.650011 10.674757 49.665944 10.523832 49.755859 8.0742188 C 49.818789 6.3601297 49.82054 4.6880838 49.759766 3.0898438 C 49.660213 0.46467583 49.658403 0.46197516 49.044922 0.00390625 C 48.788292 -0.1875913 48.759295 -0.1875 37.210938 -0.1875 L 25.632812 -0.1875 z M 50.326172 12.935547 C 48.270177 12.93526 46.217024 12.95008 44.5 12.974609 C 39.114162 13.051254 38.672344 13.06672 38.431641 13.224609 C 38.288812 13.3185 38.122531 13.483729 38.060547 13.591797 C 37.977511 13.736579 37.940192 15.061806 37.917969 18.632812 C 37.901339 21.297759 37.913187 23.655338 37.945312 23.871094 C 38.026535 24.41443 38.252223 24.66014 38.746094 24.740234 C 38.972109 24.775875 44.375882 24.80454 50.753906 24.796875 L 62.351562 24.785156 L 62.634766 24.380859 L 62.919922 23.976562 L 62.919922 18.958984 C 62.919922 14.037531 62.915051 13.938093 62.726562 13.685547 C 62.620849 13.543905 62.422957 13.343743 62.287109 13.242188 C 62.05002 13.065136 61.804685 13.05585 56.175781 12.974609 C 54.442229 12.949702 52.382167 12.935849 50.326172 12.935547 z M 75.507812 12.982422 L 70.378906 13.013672 C 65.792657 13.040884 65.217389 13.059724 64.962891 13.199219 C 64.610941 13.392171 64.47875 13.674552 64.363281 14.472656 C 64.244717 15.292452 64.24304 23.079541 64.361328 23.703125 C 64.411671 23.968625 64.56211 24.332716 64.697266 24.509766 L 64.943359 24.830078 L 70.220703 24.830078 L 75.498047 24.830078 L 75.761719 24.5 C 75.94873 24.265658 76.050225 23.999014 76.109375 23.589844 C 76.216978 22.846234 76.217054 15.198751 76.109375 14.363281 C 76.051435 13.913892 75.950772 13.619895 75.767578 13.355469 L 75.507812 12.982422 z M -2.8222656 13.001953 C -7.9315948 12.997531 -13.005846 13.014113 -13.570312 13.056641 C -14.29058 13.111058 -14.441331 13.150625 -14.681641 13.365234 C -14.952901 13.607623 -14.958773 13.642086 -15.033203 14.820312 C -15.128137 16.323053 -15.129754 23.02697 -15.035156 23.691406 C -14.981506 24.068271 -14.893525 24.257146 -14.652344 24.505859 L -14.335938 24.832031 L -2.4882812 24.832031 L 9.3613281 24.832031 L 9.6132812 24.466797 C 10.007868 23.897408 10.072082 22.847829 10.003906 18.123047 C 9.9717534 15.893712 9.9204796 13.95234 9.8886719 13.810547 C 9.7786135 13.317528 9.3847 13.152013 8.1347656 13.074219 C 7.4310074 13.030148 2.2870638 13.006359 -2.8222656 13.001953 z M 22.060547 13.013672 C 11.295333 13.046365 11.958588 13.005633 11.582031 13.648438 C 11.396895 13.964712 11.390105 14.127956 11.363281 19.041016 C 11.337165 23.797528 11.345598 24.118181 11.501953 24.291016 C 11.743692 24.558315 11.987298 24.673245 12.460938 24.744141 C 12.691553 24.779782 17.99734 24.80454 24.251953 24.796875 C 34.913799 24.785385 35.639739 24.774029 35.873047 24.621094 C 36.371346 24.294433 36.363281 24.410343 36.363281 19.101562 C 36.363281 16.385378 36.32987 14.003309 36.289062 13.810547 C 36.163116 13.216717 36.008688 13.171903 33.775391 13.072266 C 32.686567 13.024745 27.416033 12.998343 22.060547 13.013672 z M -3.8769531 26.3125 L -9.0546875 26.341797 C -14.734194 26.372071 -14.646026 26.361651 -14.931641 26.927734 C -15.049706 27.161732 -15.077951 27.911908 -15.103516 31.605469 C -15.121053 34.138203 -15.094016 36.327177 -15.041016 36.765625 C -14.933851 37.652254 -14.798563 37.837885 -14.181641 37.958984 C -13.953323 38.00381 -11.542333 38.046964 -8.8203125 38.050781 L -3.8710938 38.0625 L -3.609375 37.685547 C -3.4658187 37.478429 -3.3151312 37.112525 -3.2753906 36.871094 C -3.1812324 36.299437 -3.1812324 28.085367 -3.2753906 27.513672 C -3.3151312 27.272394 -3.466124 26.902984 -3.6113281 26.693359 L -3.8769531 26.3125 z M 51.71875 26.3125 L 51.458984 26.654297 C 51.241851 26.939031 51.185962 27.135358 51.113281 27.845703 C 50.982321 29.124871 51.069194 37.003342 51.21875 37.386719 C 51.373484 37.783554 51.597801 37.898387 52.390625 37.976562 L 52.390625 37.974609 C 52.749378 38.011649 58.053513 38.035016 64.177734 38.027344 C 76.409998 38.014493 75.710809 38.047818 76.009766 37.455078 C 76.220625 37.037169 76.220625 27.345603 76.009766 26.927734 C 75.710578 26.33638 76.470303 26.370501 63.515625 26.339844 L 51.71875 26.3125 z M 9.7167969 26.345703 L -1.2734375 26.367188 L -1.5566406 26.826172 L -1.8398438 27.283203 L -1.8710938 31.765625 C -1.8873041 34.229686 -1.8716492 36.46095 -1.8398438 36.724609 C -1.8047395 37.014367 -1.6760454 37.373752 -1.5117188 37.632812 L -1.2382812 38.064453 L 9.9199219 38.056641 C 16.05808 38.053575 21.430184 38.017155 21.857422 37.976562 C 22.520291 37.913331 22.671043 37.866177 22.882812 37.654297 L 23.130859 37.40625 L 23.130859 32.191406 L 23.130859 26.978516 L 22.882812 26.728516 C 22.659983 26.505861 22.535522 26.472437 21.671875 26.400391 C 21.142284 26.355553 15.761951 26.334206 9.7167969 26.345703 z M 37.107422 26.369141 C 28.081571 26.369141 25.402977 26.393539 25.203125 26.482422 C 25.061257 26.545653 24.893732 26.713672 24.832031 26.855469 C 24.705644 27.146489 24.607614 35.641545 24.716797 36.828125 C 24.806757 37.806003 24.90025 37.890263 25.982422 37.972656 C 26.464917 38.00894 31.784922 38.035016 37.806641 38.027344 C 50.201102 38.014493 49.333944 38.067984 49.564453 37.300781 C 49.739256 36.719005 49.739256 27.665719 49.564453 27.083984 C 49.333108 26.314085 50.288643 26.369144 37.107422 26.369141 z M 65.074219 39.550781 L 64.664062 39.949219 L 64.255859 40.345703 L 64.289062 45.332031 C 64.317787 49.696966 64.341268 50.358902 64.474609 50.658203 C 64.641135 51.031885 64.819863 51.158308 65.359375 51.285156 L 65.359375 51.289062 C 65.554625 51.335059 67.920786 51.378957 70.617188 51.382812 L 75.517578 51.390625 L 75.773438 51.023438 C 76.157812 50.469276 76.204525 49.735604 76.175781 44.695312 L 76.150391 40.191406 L 75.744141 39.896484 L 75.339844 39.603516 L 70.207031 39.578125 L 65.074219 39.550781 z M -14.419922 39.554688 L -14.697266 39.900391 C -14.89419 40.147232 -14.991158 40.397693 -15.037109 40.763672 C -15.131828 41.518168 -15.12719 49.275153 -15.03125 50.019531 C -14.973881 50.464646 -14.873158 50.764726 -14.695312 51.021484 L -14.441406 51.386719 L -2.5390625 51.386719 L 9.3613281 51.386719 L 9.6191406 51.015625 C 9.9822625 50.491639 10.028332 49.864579 10.027344 45.517578 C 10.026332 41.083013 9.9809407 40.446966 9.6210938 39.927734 L 9.3613281 39.554688 L -2.5292969 39.554688 L -14.419922 39.554688 z M 62.179688 39.554688 L 50.716797 39.558594 C 44.411071 39.560892 39.0674 39.597349 38.84375 39.640625 C 38.607719 39.686244 38.335957 39.82228 38.193359 39.964844 L 37.947266 40.210938 L 37.921875 45.148438 C 37.904489 48.416659 37.926953 50.210162 37.992188 50.453125 C 38.046499 50.654876 38.201096 50.949532 38.333984 51.107422 L 38.574219 51.394531 L 50.1875 51.369141 C 62.894559 51.340038 62.30184 51.365655 62.722656 50.798828 C 62.914203 50.540686 62.920142 50.442415 62.951172 45.453125 L 62.982422 40.369141 L 62.580078 39.960938 L 62.179688 39.554688 z M 23.927734 39.601562 C 13.23891 39.601562 12.204829 39.613535 11.949219 39.753906 C 11.289796 40.115796 11.33224 39.717258 11.363281 45.34375 C 11.388188 49.884278 11.406235 50.43855 11.546875 50.695312 C 11.778133 51.117127 11.968027 51.237968 12.498047 51.302734 C 13.214623 51.390004 32.199555 51.388519 34.101562 51.300781 C 35.978556 51.214154 36.166316 51.151221 36.289062 50.572266 C 36.329953 50.379699 36.363281 48.00134 36.363281 45.285156 C 36.363281 39.976186 36.371572 40.090181 35.873047 39.763672 C 35.639355 39.611924 34.911851 39.601563 23.927734 39.601562 z M -14.228516 52.691406 L -14.673828 53.128906 L -15.119141 53.568359 L -15.119141 58.648438 L -15.119141 63.726562 L -14.675781 64.181641 L -14.234375 64.636719 L -9.3417969 64.585938 C -6.6234628 64.557969 -4.2873988 64.494345 -4.0859375 64.443359 C -3.6005486 64.320336 -3.4568609 64.154532 -3.3691406 63.621094 C -3.3285572 63.374291 -3.2940736 60.96246 -3.2910156 58.261719 L -3.2851562 53.353516 L -3.6035156 53.109375 C -4.0742577 52.750758 -4.9252162 52.693285 -9.8964844 52.691406 L -14.228516 52.691406 z M -0.99609375 52.691406 L -1.4433594 53.130859 L -1.8886719 53.570312 L -1.8886719 58.695312 L -1.8886719 63.822266 L -1.4960938 64.21875 L -1.1035156 64.619141 L 10.035156 64.615234 C 16.161519 64.612936 21.477843 64.576101 21.849609 64.533203 C 22.359203 64.474167 22.60603 64.392467 22.851562 64.205078 L 23.177734 63.958984 L 23.177734 58.664062 L 23.177734 53.369141 L 22.804688 53.111328 C 22.451472 52.866453 22.356135 52.849797 20.964844 52.777344 C 20.157618 52.73558 14.887545 52.697694 9.2519531 52.695312 L -0.99609375 52.691406 z M 51.929688 52.691406 L 51.484375 53.130859 L 51.039062 53.570312 L 51.039062 58.648438 L 51.039062 63.728516 L 51.476562 64.173828 L 51.916016 64.619141 L 63.611328 64.619141 L 75.304688 64.619141 L 75.75 64.179688 L 76.197266 63.742188 L 76.197266 58.662109 L 76.197266 53.583984 L 75.757812 53.138672 L 75.318359 52.691406 L 63.625 52.691406 L 51.929688 52.691406 z M 39.833984 52.710938 C 37.974332 52.70489 35.898119 52.706592 33.660156 52.716797 C 24.970191 52.756746 25.135681 52.745351 24.857422 53.296875 C 24.649597 53.709032 24.643961 63.853269 24.851562 64.103516 C 25.056882 64.350697 25.377156 64.444146 26.298828 64.525391 C 26.760065 64.567154 32.008957 64.59361 37.962891 64.585938 C 48.741015 64.573087 48.788772 64.572066 49.044922 64.380859 C 49.658392 63.92275 49.660164 63.920087 49.759766 61.294922 C 49.878896 58.155506 49.739383 53.908922 49.501953 53.408203 C 49.414495 53.2238 49.281538 53.02222 49.205078 52.958984 C 49.039346 52.821334 45.412941 52.729873 39.833984 52.710938 z "
       transform="scale(0.26458333)"
       id="rect814" />
  </g>
  <g
     inkscape:label="Vrstva 1"
     inkscape:groupmode="layer"
     id="layer1"
     transform="translate(0,-280.06665)" />
</svg>
